<svg width="70" height="70" fill="none" xmlns="http://www.w3.org/2000/svg"><path d="m67.316 48.339-18.47-18.605 2.05-10.097a4.655 4.655 0 0 0 1.66.319h.013a4.723 4.723 0 1 0-4.394-3.14l-10.85 1.325L19.627.35a1.166 1.166 0 0 0-.823-.35c-.307.002-.6.124-.817.34l-3.309 3.29a1.167 1.167 0 0 0 0 1.65l1.78 1.805a32.686 32.686 0 0 0 5.512 38.638c.093.09.201.161.32.213a6.77 6.77 0 0 0-.115 1.197v13.534h-14A5.84 5.84 0 0 0 2.342 66.5v2.333c0 .645.522 1.167 1.166 1.167h53.667c.644 0 1.167-.522 1.167-1.167V66.5a5.84 5.84 0 0 0-5.834-5.833h-14v-5.998a32.88 32.88 0 0 0 6.67.7 32.483 32.483 0 0 0 15.4-3.901l1.789 1.8c.217.221.513.347.824.35.306-.002.599-.124.816-.34l3.309-3.29a1.167 1.167 0 0 0 0-1.65ZM50.924 13.635a2.333 2.333 0 1 1 1.645 3.987h-.007a2.333 2.333 0 0 1-1.633-3.987h-.005ZM48.178 21.3l-1.31 6.444-2.57-2.587 3.88-3.857Zm-1.325-1.973-4.2 4.176-3.25-3.267 7.45-.909ZM52.508 63a3.5 3.5 0 0 1 3.5 3.5v1.167H4.675V66.5a3.5 3.5 0 0 1 3.5-3.5H52.51Zm-16.333-4.667v2.334H24.51v-2.334h11.666ZM24.51 56v-8.867c0-2.83 2.616-5.133 5.833-5.133 3.216 0 5.833 2.303 5.833 5.133V56H24.51Zm14-3.71v-5.157c0-4.117-3.664-7.466-8.167-7.466a8.312 8.312 0 0 0-7.177 3.907A30.34 30.34 0 0 1 18.18 8.82l40.691 40.925a30.233 30.233 0 0 1-20.363 2.544Zm24.694-1.496-1.644-1.653L18.792 6.116 17.14 4.46l1.65-1.645L36.15 20.272c.008 0 .012.015.02.021L64.86 49.149l-1.656 1.645Z" fill="#212121"/><path d="M30.353 44.333h-.01a3.5 3.5 0 1 0-.011 7h.01a3.5 3.5 0 1 0 .01-7Zm.816 4.328a1.167 1.167 0 1 1-.827-1.994 1.166 1.166 0 0 1 .817 1.993h.01Z" fill="#2196F3"/></svg>