<svg width="40" height="52" fill="none" xmlns="http://www.w3.org/2000/svg"><path d="M16.977 2.935h.136c.253 0 .527.025.797.048 1.193.084 2.377.263 3.542.534V.654A21.09 21.09 0 0 0 17.797.07 29.24 29.24 0 0 0 16.319 0h-.427c-2.475.01-4.94.327-7.337.946-2.73.68-5.35 1.747-7.784 3.166v28.397a31.634 31.634 0 0 1 7.42-2.892 32.36 32.36 0 0 1 6.228-.956h.084c.351-.018.703-.028 1.065-.03v-2.91a34.328 34.328 0 0 0-8.095 1.076c-.98.255-1.925.53-2.813.834l-1.012.344V5.833l.432-.208a28.275 28.275 0 0 1 10.516-2.683.627.627 0 0 1 .091 0c.403-.02.808-.03 1.205-.03h.455c.21.005.42.01.63.023Z" fill="#AFB1B8"/><path d="M24.11 5.933a25.915 25.915 0 0 1-4.234-.344c-.45-.076-.893-.168-1.323-.267v28.072c1.82.45 3.69.67 5.565.656a29.943 29.943 0 0 0 7.336-.944 29.814 29.814 0 0 0 7.787-3.166V2.05a31.774 31.774 0 0 1-7.417 2.893c-2.521.648-5.112.98-7.714.99Zm11.225.485 1.012-.34v22.148l-.433.209a27.761 27.761 0 0 1-5.173 1.859c-2.163.56-4.387.847-6.62.857-.668 0-1.331-.028-1.973-.084l-.694-.061V8.228l.807.054c.587.038 1.194.056 1.855.056a34.263 34.263 0 0 0 8.406-1.078c.944-.25 1.882-.529 2.813-.842ZM2.737 42.212a1.492 1.492 0 0 0-1.125-.455 1.673 1.673 0 0 0-.65.122 1.463 1.463 0 0 0-.832.842c-.08.2-.12.413-.117.628v3.794c-.01.267.042.533.149.778.09.195.219.368.38.509.151.127.33.22.52.27.185.051.376.078.567.078.212.002.42-.043.612-.132a1.599 1.599 0 0 0 .96-1.465v-.424h-.992v.338a.881.881 0 0 1-.059.338.608.608 0 0 1-.144.214.697.697 0 0 1-.415.145.503.503 0 0 1-.465-.204.899.899 0 0 1-.132-.508v-3.538c-.006-.196.036-.39.122-.567a.507.507 0 0 1 .485-.229.527.527 0 0 1 .443.214.806.806 0 0 1 .165.509v.328h.981v-.387a1.788 1.788 0 0 0-.121-.664 1.562 1.562 0 0 0-.332-.534ZM8.629 42.17a1.765 1.765 0 0 0-1.129-.418c-.202 0-.402.037-.592.107A1.559 1.559 0 0 0 6 42.7c-.1.231-.149.482-.144.735v3.638c-.007.256.042.51.144.745.09.196.221.37.385.509.151.14.33.25.523.32.19.07.39.106.592.107a1.714 1.714 0 0 0 1.129-.427c.158-.142.285-.315.374-.509.102-.234.151-.489.144-.745v-3.639a1.77 1.77 0 0 0-.144-.734 1.643 1.643 0 0 0-.374-.532Zm-.463 4.904a.654.654 0 0 1-.198.527.727.727 0 0 1-.933 0 .652.652 0 0 1-.197-.527v-3.639a.654.654 0 0 1 .197-.526.727.727 0 0 1 .933 0 .651.651 0 0 1 .198.526v3.64ZM16.367 48.7v-6.89h-.954l-1.252 3.647h-.018l-1.262-3.646h-.944v6.888h.985v-4.19h.017l.964 2.962h.49l.972-2.962h.018v4.19h.984ZM21.958 42.294c-.152-.17-.343-.3-.557-.377a2.184 2.184 0 0 0-.713-.107h-1.462v6.89h.981v-2.691h.506c.306.014.611-.051.886-.188a1.43 1.43 0 0 0 .538-.527c.114-.183.19-.387.225-.6a4.9 4.9 0 0 0 .054-.783c.01-.33-.023-.662-.097-.984a1.465 1.465 0 0 0-.361-.633Zm-.506 2.1a.868.868 0 0 1-.091.359.552.552 0 0 1-.253.241 1.006 1.006 0 0 1-.463.087h-.448v-2.342h.506a.942.942 0 0 1 .443.086.557.557 0 0 1 .23.254c.053.121.083.252.086.384v.458c0 .16.01.326 0 .473h-.01ZM26.607 41.81h-.804l-1.518 6.89h.982l.288-1.48h1.338l.289 1.48h.981l-1.556-6.89Zm-.905 4.471.483-2.497h.018l.48 2.497h-.981ZM32.95 45.96h-.018l-1.483-4.15h-.943v6.89h.981v-4.143h.02l1.5 4.142h.924v-6.888h-.981v4.15ZM38.948 41.81l-.79 2.74h-.02l-.789-2.74h-1.04l1.349 3.978v2.911h.981v-2.911l1.349-3.977h-1.04ZM0 50.645h.473v1.327h.321v-1.328h.47v-.272H0v.273ZM3.977 50.372l-.62 1.6H3.7l.131-.364h.638l.137.364h.349l-.635-1.6h-.342Zm-.05.967.217-.593.218.593h-.435ZM7.907 51.382h.37v.206a.613.613 0 0 1-.38.135.404.404 0 0 1-.339-.153.669.669 0 0 1-.119-.417c0-.356.155-.534.46-.534a.337.337 0 0 1 .363.255l.316-.062c-.068-.312-.294-.47-.678-.47a.804.804 0 0 0-.56.206.78.78 0 0 0-.23.615.873.873 0 0 0 .205.6.776.776 0 0 0 .608.235.96.96 0 0 0 .678-.255v-.63h-.694v.27ZM11.922 50.372H11.6v1.6h1.12V51.7h-.797v-1.328ZM15.318 50.372h-.324v1.6h.324v-1.6ZM18.637 51.44l-.655-1.068h-.314v1.6h.301v-1.045l.643 1.045h.32v-1.6h-.295v1.069ZM21.636 51.267h.797v-.272h-.797v-.35h.858v-.273h-1.181v1.6h1.214V51.7h-.89v-.433ZM28.912 51.003h-.63v-.63h-.321v1.599h.321v-.7h.63v.7h.321v-1.6h-.32v.631ZM31.93 51.267h.8v-.272h-.8v-.35h.86v-.273h-1.18v1.6h1.211V51.7h-.89v-.433ZM36.023 51.268c.279-.044.42-.191.42-.445a.383.383 0 0 0-.156-.356.904.904 0 0 0-.468-.094h-.678v1.599h.32v-.669h.064a.432.432 0 0 1 .2.036c.047.029.086.069.114.117l.349.508h.384l-.194-.312a1.114 1.114 0 0 0-.355-.384Zm-.323-.222h-.238v-.401h.253a.84.84 0 0 1 .326.038.208.208 0 0 1 .046.255.208.208 0 0 1-.061.07.912.912 0 0 1-.326.038ZM39.11 51.267h.797v-.272h-.797v-.35h.86v-.273h-1.184v1.6H40V51.7h-.89v-.433Z" fill="#AFB1B8"/></svg>