<svg width="89" height="46" fill="none" xmlns="http://www.w3.org/2000/svg"><path d="M44.74 21.353a3.259 3.259 0 0 1-.57-2.057v-2.982c0-.915.189-1.61.567-2.085.378-.475 1.028-.712 1.949-.71.865 0 1.48.202 1.843.607.396.516.589 1.147.544 1.784v.7h-1.547v-.71a3.961 3.961 0 0 0-.045-.694.69.69 0 0 0-.221-.413.836.836 0 0 0-.561-.16.886.886 0 0 0-.59.17.81.81 0 0 0-.257.455c-.044.243-.064.49-.06.737v3.62c-.025.349.044.698.198 1.016a.734.734 0 0 0 .31.247.78.78 0 0 0 .399.057.788.788 0 0 0 .548-.164.748.748 0 0 0 .23-.44c.037-.24.053-.483.049-.725v-.735h1.547v.67a2.914 2.914 0 0 1-.535 1.876c-.355.443-.961.664-1.852.664-.891 0-1.564-.236-1.946-.728ZM51.186 21.384c-.39-.465-.586-1.141-.586-2.036V16.21c0-.886.195-1.556.586-2.011.391-.455 1.045-.682 1.962-.68.91 0 1.56.227 1.951.68.391.455.59 1.125.59 2.011v3.138c0 .886-.199 1.565-.596 2.033-.398.467-1.045.7-1.946.7-.9 0-1.567-.236-1.96-.697Zm2.683-.753c.14-.29.203-.61.185-.928v-3.841a1.845 1.845 0 0 0-.182-.91.738.738 0 0 0-.316-.25.784.784 0 0 0-.408-.054.794.794 0 0 0-.41.054.749.749 0 0 0-.318.25 1.8 1.8 0 0 0-.186.91v3.859c-.02.32.044.638.186.928a.96.96 0 0 0 .326.23 1.008 1.008 0 0 0 .796 0 .96.96 0 0 0 .327-.23v-.018ZM57.551 13.61h1.667l1.253 5.79 1.282-5.79h1.621l.164 8.356h-1.199l-.128-5.807-1.237 5.807h-.962l-1.282-5.828-.118 5.828H57.4l.151-8.355ZM65.406 13.61h2.596c1.496 0 2.244.791 2.244 2.373 0 1.515-.788 2.271-2.362 2.27h-.885v3.713h-1.602l.01-8.355Zm2.218 3.571c.158.02.319.006.471-.04.152-.045.292-.122.41-.223.184-.283.265-.614.231-.944a2.859 2.859 0 0 0-.077-.758.633.633 0 0 0-.118-.23.672.672 0 0 0-.202-.168 1.529 1.529 0 0 0-.715-.133h-.622v2.496h.622ZM72.556 13.61h1.721l1.766 8.356h-1.494l-.349-1.927h-1.535l-.36 1.927H70.79l1.766-8.355Zm1.471 5.462-.6-3.508-.599 3.508h1.199ZM77.469 13.61h1.122l2.147 4.767V13.61h1.33v8.355h-1.067l-2.16-4.976v4.976h-1.375l.003-8.355ZM85.184 18.78l-1.786-5.158h1.504l1.09 3.313 1.022-3.313h1.47l-1.762 5.158v3.186h-1.538V18.78ZM47.215 25.619v.437h-1.308v3.395h-.548v-3.395h-1.314v-.437h3.17ZM51.314 29.451h-.423a.177.177 0 0 1-.119-.036.196.196 0 0 1-.07-.088l-.378-.91H48.51l-.378.91a.258.258 0 0 1-.058.103.183.183 0 0 1-.119.036h-.423l1.603-3.832h.557l1.622 3.817Zm-2.654-1.423h1.513l-.64-1.56a2.964 2.964 0 0 1-.12-.36l-.06.203-.058.16-.635 1.557ZM54.076 29.075c.1.005.201.005.301 0 .087-.009.173-.024.257-.046.078-.018.155-.041.23-.07.071-.027.142-.06.215-.093v-.862h-.64a.12.12 0 0 1-.087-.03.088.088 0 0 1-.032-.07v-.295h1.243v1.469a2.349 2.349 0 0 1-1.077.391 4.458 4.458 0 0 1-.467.025 2.253 2.253 0 0 1-.808-.143 1.937 1.937 0 0 1-.641-.4 1.849 1.849 0 0 1-.414-.607 2.076 2.076 0 0 1-.147-.795 2.155 2.155 0 0 1 .144-.802c.092-.227.233-.433.414-.606.182-.173.4-.308.64-.398.275-.098.566-.146.86-.142.149 0 .298.01.445.033.13.02.258.052.381.097.112.04.22.09.32.152.1.06.192.127.28.2l-.154.237a.14.14 0 0 1-.052.052.15.15 0 0 1-.073.02.196.196 0 0 1-.1-.03 1.923 1.923 0 0 1-.156-.09 1.368 1.368 0 0 0-.215-.104 1.873 1.873 0 0 0-.295-.085 2.255 2.255 0 0 0-.407-.033 1.743 1.743 0 0 0-.619.106 1.337 1.337 0 0 0-.47.303c-.134.138-.235.3-.299.477a1.953 1.953 0 0 0 0 1.277c.07.18.18.345.32.482.132.132.292.235.469.304.203.066.42.092.634.076ZM59.186 29.014h1.75v.437H58.65v-3.832h.548l-.012 3.395ZM62.755 29.45h-.548V25.62h.548v3.832ZM64.794 25.637c.032.018.06.041.083.07l2.343 2.889a.972.972 0 0 1 0-.137v-2.855h.478v3.847h-.276a.24.24 0 0 1-.119-.021.314.314 0 0 1-.086-.073l-2.34-2.885v2.979h-.458V25.62h.285c.031 0 .062.006.09.018ZM71.733 25.619v.422H69.79v1.265h1.573v.406h-1.573v1.308h1.942v.422h-2.506v-3.823h2.506ZM14.304 1.954l24.335 6.541v22.922L14.304 24.88V1.954ZM12.744 0v25.992l27.453 7.382V7.384L12.742 0Z" fill="#AFB1B8"/><path d="M27.456 45.44 0 38.052v-25.99l27.456 7.385V45.44Z" fill="#AFB1B8"/><path d="m13.198 1.66 24.017 6.459-10.214 9.672-24.02-6.462 10.217-9.67ZM12.743 0 0 12.063l27.456 7.385 12.74-12.063L12.743 0ZM29.001 43.978l11.195-10.6L29 30.364v13.613Z" fill="#AFB1B8"/></svg>