<svg width="45" height="50" fill="none" xmlns="http://www.w3.org/2000/svg"><path d="m6 0 7.308 6.918h20.384v19.298L41 33.134V0H6Z" fill="#AFB1B8"/><path d="M0 6.626v32.188h34V26.02L13.523 6.634 0 6.626Zm27.523 27.48H5.38V12.457h1.565V32.64h20.578v1.465ZM9.79 44.784l.818-1.685h.684l-1.191 2.246v1.309h-.62v-1.309L8.286 43.1h.686l.818 1.685Zm3.511 1.042h-1.377l-.288.828h-.642l1.343-3.555h.554l1.345 3.555h-.644l-.29-.828Zm-1.203-.498h1.03l-.515-1.475-.515 1.475Zm3.637.366c0-.164.045-.315.135-.451.09-.139.266-.302.53-.491a2.265 2.265 0 0 1-.291-.444.877.877 0 0 1-.08-.354c0-.279.084-.498.253-.66.17-.162.397-.244.684-.244.259 0 .47.077.635.23.166.151.249.34.249.564a.785.785 0 0 1-.113.41 1.34 1.34 0 0 1-.368.371l-.242.176.686.81c.1-.195.149-.412.149-.651h.515c0 .437-.102.796-.308 1.076l.523.618h-.689l-.2-.237a1.47 1.47 0 0 1-.908.286c-.351 0-.633-.093-.845-.279a.932.932 0 0 1-.315-.73Zm1.177.535c.2 0 .387-.067.562-.2l-.777-.916-.075.054c-.196.148-.293.317-.293.508 0 .164.052.298.158.4a.585.585 0 0 0 .425.154Zm-.327-2.29c0 .137.084.308.251.515l.271-.185.076-.061a.44.44 0 0 0 .151-.345.311.311 0 0 0-.104-.236.37.37 0 0 0-.267-.1.348.348 0 0 0-.276.117.432.432 0 0 0-.102.295Zm6.457 1.558c-.035.379-.175.675-.42.888-.244.212-.568.318-.974.318-.283 0-.533-.067-.75-.2a1.332 1.332 0 0 1-.497-.574 2.066 2.066 0 0 1-.183-.862v-.332c0-.335.06-.63.178-.886.119-.256.289-.453.51-.591.223-.139.48-.208.772-.208.392 0 .708.107.947.32.24.213.378.514.418.903h-.616c-.03-.255-.104-.439-.224-.551-.12-.114-.294-.171-.525-.171-.269 0-.476.098-.62.295-.144.196-.217.483-.22.862v.315c0 .384.068.677.205.879.138.202.34.303.605.303.243 0 .425-.055.547-.164.122-.109.2-.29.232-.544h.616Zm3.392-.528c0 .349-.06.654-.181.918-.12.262-.293.464-.518.606-.223.14-.48.21-.771.21-.288 0-.545-.07-.772-.21a1.405 1.405 0 0 1-.522-.603 2.125 2.125 0 0 1-.186-.901v-.2c0-.347.061-.653.183-.918.124-.266.297-.468.52-.608.225-.142.482-.213.772-.213.29 0 .546.07.769.21.225.139.398.339.52.6.122.261.184.565.186.912v.197Zm-.618-.185c0-.394-.075-.696-.225-.906a.728.728 0 0 0-.632-.315.731.731 0 0 0-.628.315c-.15.208-.226.504-.229.886v.205c0 .39.076.693.227.906.153.213.365.32.635.32.273 0 .483-.104.63-.313.148-.208.222-.512.222-.913v-.185Z" fill="#AFB1B8"/></svg>